<svg xmlns="http://www.w3.org/2000/svg" class="hide"><defs><clipPath id="a"><path d="M623.005 546.993l16.994 11.369 16.996-11.369v9.644l-16.996 11.37-16.994-11.37z"/></clipPath><clipPath id="b"><path d="M623.005 529.993l16.994 11.369 16.996-11.369v9.644l-16.996 11.37-16.994-11.37z"/></clipPath><clipPath id="a"><path d="M640.5 1573c11.322 0 20.5 9.18 20.5 20.5s-9.178 20.5-20.5 20.5-20.5-9.18-20.5-20.5 9.178-20.5 20.5-20.5z"/></clipPath><clipPath id="b"><path d="M640.12 1584h.76v19h-.76z"/></clipPath><clipPath id="c"><path d="M650 1593.12v.76h-19v-.76z"/></clipPath></defs><symbol id="close" viewBox="0 0 24 24"><path d="M24 20.188l-8.315-8.209 8.2-8.282L20.188 0l-8.212 8.318L3.666.115 0 3.781l8.321 8.24-8.206 8.313L3.781 24l8.237-8.318 8.285 8.203z"/></symbol><symbol id="github" viewBox="0 0 16 16"><path d="M8 .198a8 8 0 0 0-2.529 15.591c.4.074.547-.174.547-.385 0-.191-.008-.821-.011-1.489-2.226.484-2.695-.944-2.695-.944-.364-.925-.888-1.171-.888-1.171-.726-.497.055-.486.055-.486.803.056 1.226.824 1.226.824.714 1.223 1.872.869 2.328.665.072-.517.279-.87.508-1.07-1.777-.202-3.645-.888-3.645-3.954 0-.873.313-1.587.824-2.147-.083-.202-.357-1.015.077-2.117 0 0 .672-.215 2.201.82A7.672 7.672 0 0 1 8 4.066c.68.003 1.365.092 2.004.269 1.527-1.035 2.198-.82 2.198-.82.435 1.102.162 1.916.079 2.117.513.56.823 1.274.823 2.147 0 3.073-1.872 3.749-3.653 3.947.287.248.543.735.543 1.481 0 1.07-.009 1.932-.009 2.195 0 .213.144.462.55.384A8 8 0 0 0 8.001.196z"/></symbol><symbol id="go-down"><path d="M623.005 546.993l16.994 11.369 16.996-11.369v9.644l-16.996 11.37-16.994-11.37z" stroke-dasharray="0" stroke="#17ffcb" stroke-miterlimit="50" stroke-width="2" clip-path="url(&quot;#a&quot;)" transform="translate(-623 -529)"/><path d="M623.005 529.993l16.994 11.369 16.996-11.369v9.644l-16.996 11.37-16.994-11.37z" stroke-dasharray="0" stroke="#17ffcb" stroke-miterlimit="50" stroke-width="2" clip-path="url(&quot;#b&quot;)" transform="translate(-623 -529)"/></symbol><symbol id="linkedin" viewBox="0 0 16 16"><path d="M6 6h2.767v1.418h.04C9.192 6.727 10.134 6 11.539 6 14.46 6 15 7.818 15 10.183V15h-2.885v-4.27c0-1.018-.021-2.329-1.5-2.329-1.502 0-1.732 1.109-1.732 2.255V15H6V6zM1 6h3v9H1V6zM4 3.5a1.5 1.5 0 1 1-3.001-.001A1.5 1.5 0 0 1 4 3.5z"/></symbol><symbol id="mail" viewBox="0 0 20 20"><path d="M17.388 4.751H2.613a.39.39 0 0 0-.389.389v9.72c0 .216.175.389.389.389h14.775a.389.389 0 0 0 .389-.389V5.14a.39.39 0 0 0-.389-.389m-.94.779L10 11.984 3.552 5.53h12.896zm-13.446.551l3.921 3.925-3.921 3.925v-7.85zm.558 8.39l3.914-3.916 2.253 2.253a.385.385 0 0 0 .548 0l2.253-2.253 3.913 3.916H3.56zm13.439-.54l-3.921-3.925 3.921-3.925v7.85z"/></symbol><symbol id="menu-icon"><path d="M1.5 1h27a1.499 1.499 0 1 1 0 3h-27a1.499 1.499 0 1 1 0-3zM1.5 8h27a1.499 1.499 0 1 1 0 3h-27a1.499 1.499 0 1 1 0-3zM1.5 15h27a1.499 1.499 0 1 1 0 3h-27a1.5 1.5 0 1 1 0-3z"/></symbol><symbol id="phone" viewBox="0 0 24 24"><path d="M18.48 22.926l-1.193.658C10.308 27.205-1.795 6.09 5.008 2.1l1.145-.637L9.867 7.93l-1.139.632c-2.067 1.245 2.76 9.707 4.879 8.545l1.162-.642 3.711 6.461zM8.672 0l-1.68.975 3.714 6.466 1.681-.975L8.672 0zm8.613 14.997l-1.68.975 3.714 6.467L21 21.464l-3.715-6.467z"/></symbol><symbol id="plus-ribbon"><path d="M.775 63L63 .775 125.225 63 63 125.225z"/><path d="M43.254 52.97h3.527v-6.2h6.232v-3.527h-6.232v-6.28h-3.527v6.28h-6.231v3.527h6.231z"/></symbol><symbol id="plus-sign"><path d="M640.5 1573c11.322 0 20.5 9.18 20.5 20.5s-9.178 20.5-20.5 20.5-20.5-9.18-20.5-20.5 9.178-20.5 20.5-20.5z" stroke-dasharray="0" stroke="#17ffcb" stroke-miterlimit="50" stroke-width="2" clip-path="url(&quot;#a&quot;)" transform="translate(-620 -1573)"/><path d="M640.12 1584h.76v19h-.76z" stroke-dasharray="0" stroke="#17ffcb" stroke-miterlimit="50" stroke-width="2" clip-path="url(&quot;#b&quot;)" transform="translate(-620 -1573)"/><path d="M650 1593.12v.76h-19v-.76z" stroke-dasharray="0" stroke="#17ffcb" stroke-miterlimit="50" stroke-width="2" clip-path="url(&quot;#c&quot;)" transform="translate(-620 -1573)"/></symbol><symbol id="twitter" viewBox="0 0 16 16"><path d="M16 3.538a6.461 6.461 0 0 1-1.884.516 3.301 3.301 0 0 0 1.444-1.816 6.607 6.607 0 0 1-2.084.797 3.28 3.28 0 0 0-2.397-1.034 3.28 3.28 0 0 0-3.197 4.028 9.321 9.321 0 0 1-6.766-3.431 3.284 3.284 0 0 0 1.015 4.381A3.301 3.301 0 0 1 .643 6.57v.041A3.283 3.283 0 0 0 3.277 9.83a3.291 3.291 0 0 1-1.485.057 3.293 3.293 0 0 0 3.066 2.281 6.586 6.586 0 0 1-4.862 1.359 9.286 9.286 0 0 0 5.034 1.475c6.037 0 9.341-5.003 9.341-9.341 0-.144-.003-.284-.009-.425a6.59 6.59 0 0 0 1.637-1.697z"/></symbol></svg>